<svg width="16" height="16" viewBox="0 0 16 16" fill="none" xmlns="http://www.w3.org/2000/svg">
<path d="M15.0517 6.25875H7.62086V9.81138H11.3581C10.8557 11.2849 9.63814 12.1798 8.08232 12.1798C6.00231 12.1798 4.17713 10.3344 4.17713 8.23087C4.17713 6.1289 6.00231 4.2851 8.08232 4.2851C9.07678 4.2851 9.91745 4.61274 10.5136 5.23205L10.7841 5.51348L13.3467 2.86992L13.0681 2.59084C11.8551 1.37504 10.1314 0.732422 8.08236 0.732422C3.96172 0.732468 0.733398 4.02614 0.733398 8.23087C0.733398 12.4372 3.96172 15.7324 8.08232 15.7324C11.8807 15.7324 14.5795 13.4335 15.1255 9.73283C15.1967 9.25281 15.233 8.74758 15.2334 8.23087C15.2334 7.66365 15.1863 7.04824 15.1075 6.58519L15.0517 6.25875Z" fill="white"/>
</svg>
